<svg xmlns="http://www.w3.org/2000/svg" width="59.339" height="59.339" viewBox="0 0 59.339 59.339">
  <g id="accept-circular-button-outline" transform="translate(0 -0.001)">
    <g id="Group_70" data-name="Group 70" transform="translate(0 0.001)">
      <g id="Group_68" data-name="Group 68">
        <path id="Path_45" data-name="Path 45" d="M9.175,51.064a29.541,29.541,0,1,0-6.346-9.414A29.516,29.516,0,0,0,9.175,51.064ZM30.119,4.825a25.3,25.3,0,1,1-25.3,25.3A25.3,25.3,0,0,1,30.119,4.825Z" transform="translate(-0.45 -0.451)" fill="#fff"/>
        <path id="Path_46" data-name="Path 46" d="M29.67,59.34A29.676,29.676,0,0,1,18.119,2.334a29.676,29.676,0,0,1,23.1,54.673A29.49,29.49,0,0,1,29.67,59.34ZM29.67.1A29.575,29.575,0,0,0,18.159,56.914,29.575,29.575,0,0,0,41.18,2.427,29.385,29.385,0,0,0,29.67.1Zm0,54.914A25.346,25.346,0,0,1,11.748,11.749,25.346,25.346,0,1,1,47.592,47.593,25.18,25.18,0,0,1,29.67,55.016Zm0-50.59a25.245,25.245,0,0,0-17.851,43.1,25.245,25.245,0,1,0,35.7-35.7A25.079,25.079,0,0,0,29.67,4.426Z" transform="translate(0 -0.001)" fill="#fff"/>
      </g>
      <g id="Group_69" data-name="Group 69" transform="translate(13.977 18.202)">
        <path id="Path_47" data-name="Path 47" d="M148.053,203.043a2.162,2.162,0,0,0,3.057,0l18.51-18.51a2.162,2.162,0,0,0-3.058-3.057l-16.981,16.981-6.925-6.925a2.162,2.162,0,1,0-3.057,3.057Z" transform="translate(-138.917 -180.792)" fill="#fff"/>
        <path id="Path_48" data-name="Path 48" d="M149.141,203.276a2.2,2.2,0,0,1-1.564-.648l-8.453-8.453a2.212,2.212,0,1,1,3.129-3.129l6.889,6.889,16.945-16.945a2.212,2.212,0,1,1,3.129,3.129l-18.51,18.51A2.2,2.2,0,0,1,149.141,203.276ZM140.688,190.5a2.112,2.112,0,0,0-1.493,3.6l8.453,8.453a2.112,2.112,0,0,0,2.986,0l18.51-18.51a2.112,2.112,0,0,0-2.986-2.986l-17.016,17.017-6.96-6.96A2.1,2.1,0,0,0,140.688,190.5Z" transform="translate(-138.477 -180.342)" fill="#fff"/>
      </g>
    </g>
  </g>
</svg>
