<svg xmlns="http://www.w3.org/2000/svg" width="83.787" height="83.787" viewBox="0 0 83.787 83.787">
  <g id="layer1" transform="translate(289.399 247.429) rotate(135)">
    <path id="path3553" d="M29.67,290.724A29.625,29.625,0,1,0,59.3,320.358,29.663,29.663,0,0,0,29.67,290.724Zm0,5.04A24.582,24.582,0,1,1,5.1,320.358,24.559,24.559,0,0,1,29.67,295.764ZM27.1,307.724a2.518,2.518,0,0,0-1.728.763L15.288,318.572a2.52,2.52,0,0,0,0,3.554l10.085,10.08a2.52,2.52,0,1,0,3.568-3.553l-5.783-5.783H42.245a2.52,2.52,0,1,0,0-5.041H23.178l5.763-5.769a2.521,2.521,0,0,0-1.841-4.336Z" transform="translate(0 0)" fill="#fff"/>
  </g>
</svg>
