<svg xmlns="http://www.w3.org/2000/svg" width="76.645" height="9.98" viewBox="0 0 76.645 9.98">
  <g id="arrow-right" transform="translate(-12.619 -45.133)">
    <g id="Group_62" data-name="Group 62">
      <path id="Path_40" data-name="Path 40" d="M81.474,55.113l-1.125-1.654,5.149-3.5-5.38-3.092,1-1.734,8.149,4.683Z" fill="#747474"/>
    </g>
    <g id="Group_67" data-name="Group 67">
      <g id="Group_63" data-name="Group 63">
        <path id="Path_41" data-name="Path 41" d="M12.619,48.9h1.5v2h-1.5Z" fill="#747474"/>
      </g>
      <g id="Group_64" data-name="Group 64">
        <path id="Path_42" data-name="Path 42" d="M14.129,50.9l-.01-2h.01Z" fill="#747474"/>
      </g>
      <g id="Group_65" data-name="Group 65">
        <path id="Path_43" data-name="Path 43" d="M85.6,50.9l-.01-2h.01Zm-3.1,0-.01-2h.01Zm-.011,0H79.38v-2h3.108Zm-3.108,0-.01-2h.01Zm-3.1,0-.01-2h.01Zm-.01,0H73.165v-2h3.108Zm-3.108,0-.01-2h.01Zm-3.1,0-.01-1.971V50.9l-3.108-.03L66.94,48.9h.01v0h3.118Zm-6.215,0-.011-2h.011Zm-.011,0H60.735v-2h3.107Zm-3.108,0-.01-2h.01Zm-3.1,0-.011-2h.011Zm-.011,0H54.519v-2h3.107Zm-3.107,0-.01-2h.01Zm-3.1,0-.01-2h.01Zm-.01,0H48.3v-2h3.107Zm-3.107,0-.011-2H48.3Zm-3.1,0-.01-2h.01Zm-.01,0H42.089v-2H45.2Zm-3.108,0-.011-2h.011Zm-3.1,0-.01-2h.01Zm-.011,0H35.872v-2H38.98Zm-3.107,0-.01-2h.01Zm-3.1,0-.01-2h.01Zm-.01,0H29.657v-2h3.108Zm-3.108,0-.01-2h.01Zm-3.1,0-.01-2h.01Zm-.01,0H23.442v-2H26.55Zm-3.108,0-.01-2h.01Zm-3.1,0-.01-2h.01Zm-.011,0H17.226v-2h3.108Z" fill="#747474"/>
      </g>
      <g id="Group_66" data-name="Group 66">
        <path id="Path_44" data-name="Path 44" d="M85.6,48.9h1.5v2H85.6Z" fill="#747474"/>
      </g>
    </g>
  </g>
</svg>
