<svg id="checklist" xmlns="http://www.w3.org/2000/svg" width="44.027" height="59.339" viewBox="0 0 44.027 59.339">
  <g id="Group_45" data-name="Group 45" transform="translate(7.779 20.024)">
    <g id="Group_44" data-name="Group 44" transform="translate(0)">
      <path id="Path_27" data-name="Path 27" d="M143.686,173.4a2.19,2.19,0,0,0-3.1.03l-2.845,2.9-.781-.817a2.193,2.193,0,1,0-3.171,3.03L136.134,181a2.194,2.194,0,0,0,3.151.02l4.431-4.519A2.192,2.192,0,0,0,143.686,173.4Zm-1.211,1.884-4.431,4.519a.455.455,0,0,1-.653,0l-2.346-2.455a.454.454,0,1,1,.657-.628l1.4,1.466a.869.869,0,0,0,1.249.008l3.474-3.543a.454.454,0,0,1,.649.636Z" transform="translate(-133.181 -172.771)" fill="#fff"/>
    </g>
  </g>
  <g id="Group_47" data-name="Group 47" transform="translate(7.779 30.284)">
    <g id="Group_46" data-name="Group 46" transform="translate(0)">
      <path id="Path_28" data-name="Path 28" d="M143.686,261.926a2.193,2.193,0,0,0-3.1.03l-2.845,2.9-.781-.817a2.193,2.193,0,1,0-3.171,3.03l2.346,2.455a2.194,2.194,0,0,0,3.151.02l4.431-4.519A2.192,2.192,0,0,0,143.686,261.926Zm-1.211,1.884-4.431,4.519a.455.455,0,0,1-.653,0l-2.346-2.455a.454.454,0,0,1,.657-.628l1.4,1.466a.868.868,0,0,0,1.249.008l3.474-3.543a.454.454,0,1,1,.649.636Z" transform="translate(-133.181 -261.299)" fill="#fff"/>
    </g>
  </g>
  <g id="Group_49" data-name="Group 49" transform="translate(7.779 40.543)">
    <g id="Group_48" data-name="Group 48" transform="translate(0)">
      <path id="Path_29" data-name="Path 29" d="M143.686,350.443a2.192,2.192,0,0,0-3.1.03l-2.845,2.9-.781-.817a2.193,2.193,0,1,0-3.171,3.03l2.346,2.455a2.207,2.207,0,0,0,1.577.678h.008a2.207,2.207,0,0,0,1.566-.657l4.431-4.519A2.192,2.192,0,0,0,143.686,350.443Zm-1.211,1.884-4.431,4.519a.455.455,0,0,1-.653,0l-2.346-2.455a.454.454,0,0,1,.657-.628l1.4,1.466a.872.872,0,0,0,1.249.008l3.474-3.543a.454.454,0,1,1,.649.636Z" transform="translate(-133.181 -349.816)" fill="#fff"/>
    </g>
  </g>
  <g id="Group_51" data-name="Group 51" transform="translate(21.144 23.608)">
    <g id="Group_50" data-name="Group 50" transform="translate(0)">
      <path id="Path_30" data-name="Path 30" d="M262.148,203.7H249.367a.869.869,0,0,0,0,1.738h12.781a.869.869,0,1,0,0-1.738Z" transform="translate(-248.498 -203.699)" fill="#fff"/>
    </g>
  </g>
  <g id="Group_53" data-name="Group 53" transform="translate(21.144 34.157)">
    <g id="Group_52" data-name="Group 52" transform="translate(0)">
      <path id="Path_31" data-name="Path 31" d="M262.148,294.717H249.367a.869.869,0,0,0,0,1.738h12.781a.869.869,0,1,0,0-1.738Z" transform="translate(-248.498 -294.717)" fill="#fff"/>
    </g>
  </g>
  <g id="Group_55" data-name="Group 55" transform="translate(21.144 44.705)">
    <g id="Group_54" data-name="Group 54" transform="translate(0)">
      <path id="Path_32" data-name="Path 32" d="M262.148,385.734H249.367a.869.869,0,0,0,0,1.738h12.781a.869.869,0,1,0,0-1.738Z" transform="translate(-248.498 -385.734)" fill="#fff"/>
    </g>
  </g>
  <g id="Group_57" data-name="Group 57">
    <g id="Group_56" data-name="Group 56" transform="translate(0)">
      <path id="Path_33" data-name="Path 33" d="M109.218,34.578a.869.869,0,0,0-.869.869V55.322A2.281,2.281,0,0,1,106.07,57.6H70.077A2.281,2.281,0,0,1,67.8,55.322V10.486a2.281,2.281,0,0,1,2.278-2.278H77.44V8.7a2.263,2.263,0,0,0,2.26,2.26h.326v1.549H71.448a1.652,1.652,0,0,0-1.65,1.65V54.111a1.652,1.652,0,0,0,1.65,1.65h14.6a.869.869,0,1,0,0-1.738H71.537V14.247h8.49v1.369a1.92,1.92,0,0,0,1.918,1.918H94.2a1.92,1.92,0,0,0,1.918-1.918V14.247h8.49V54.022H90.1a.869.869,0,0,0,0,1.738h14.6a1.652,1.652,0,0,0,1.65-1.65V14.158a1.652,1.652,0,0,0-1.65-1.65H96.12V10.96h.326a2.263,2.263,0,0,0,2.26-2.26V8.207h7.364a2.281,2.281,0,0,1,2.278,2.278v20.9a.869.869,0,0,0,1.739,0v-20.9a4.021,4.021,0,0,0-4.017-4.017H98.706V5.942a2.263,2.263,0,0,0-2.26-2.26H91.712V2.268A2.271,2.271,0,0,0,89.444,0H86.7a2.271,2.271,0,0,0-2.268,2.268V3.681H79.7a2.263,2.263,0,0,0-2.26,2.26v.527H70.077a4.021,4.021,0,0,0-4.017,4.017V55.322a4.021,4.021,0,0,0,4.017,4.017H106.07a4.021,4.021,0,0,0,4.017-4.017V35.447A.87.87,0,0,0,109.218,34.578ZM94.381,15.616a.18.18,0,0,1-.18.179H81.945a.18.18,0,0,1-.179-.179V14.247H94.381v1.369Zm0-3.108H81.765V10.96H94.381v1.549ZM86.173,2.268h0a.537.537,0,0,1,.53-.53h2.741a.537.537,0,0,1,.53.53V3.681h-3.8ZM79.179,5.942A.529.529,0,0,1,79.7,5.42H96.446a.529.529,0,0,1,.522.522V8.692a.537.537,0,0,1-.53.529H79.708a.537.537,0,0,1-.53-.53Z" transform="translate(-66.06)" fill="#fff"/>
    </g>
  </g>
</svg>
