<svg id="contact" xmlns="http://www.w3.org/2000/svg" width="62.466" height="59.339" viewBox="0 0 62.466 59.339">
  <g id="Group_42" data-name="Group 42">
    <g id="Group_41" data-name="Group 41" transform="translate(0 0)">
      <path id="Path_20" data-name="Path 20" d="M59.812,12.813H16.179a2.659,2.659,0,0,0-2.655,2.655V27.5l-2-2.993a3.086,3.086,0,0,0-4.165-.937l-4.1,2.468A6.023,6.023,0,0,0,.506,29.61c-1.5,5.453-.386,14.847,13.4,28.637,10.965,10.954,19.141,13.9,24.776,13.9a14.548,14.548,0,0,0,3.863-.5,6.033,6.033,0,0,0,3.57-2.748l2.465-4.109a3.086,3.086,0,0,0-.937-4.16l-9.829-6.552a3.1,3.1,0,0,0-4.153.674L30.8,58.431a1,1,0,0,1-1.275.27l-.545-.3c-1.792-.977-4.023-2.193-8.528-6.7-.487-.487-.929-.943-1.343-1.38h40.7a2.653,2.653,0,0,0,2.655-2.643V15.468A2.659,2.659,0,0,0,59.812,12.813ZM27.986,60.229l.529.291a3.068,3.068,0,0,0,3.931-.81l2.862-3.679a1.012,1.012,0,0,1,1.354-.22l9.829,6.552a1.006,1.006,0,0,1,.305,1.354l-2.465,4.109A3.957,3.957,0,0,1,42,69.638c-4.923,1.354-13.538.208-26.613-12.868S1.168,35.079,2.518,30.161a3.957,3.957,0,0,1,1.811-2.334l4.109-2.466a1.007,1.007,0,0,1,1.354.305L16.347,35.5a1.011,1.011,0,0,1-.22,1.354l-3.68,2.863a3.067,3.067,0,0,0-.81,3.93l.292.529c1.041,1.91,2.336,4.286,7.054,9S26.077,59.188,27.986,60.229Zm32.4-12.55a.569.569,0,0,1-.573.562H17.233a26.262,26.262,0,0,1-3.475-5.065l-.3-.547a.993.993,0,0,1,.269-1.273l3.68-2.863a3.1,3.1,0,0,0,.674-4.153l-2.474-3.714V15.468a.566.566,0,0,1,.573-.573H59.812a.566.566,0,0,1,.573.573V47.68Z" transform="translate(-0.001 -12.813)" fill="#fff"/>
      <path id="Path_21" data-name="Path 21" d="M186.439,50.8,169.034,64a1.4,1.4,0,0,1-1.652,0l-17.4-13.2a1.042,1.042,0,0,0-1.259,1.66l17.4,13.2a3.505,3.505,0,0,0,4.165,0l17.405-13.2a1.041,1.041,0,0,0-1.258-1.66Z" transform="translate(-130.214 -45.978)" fill="#fff"/>
      <path id="Path_22" data-name="Path 22" d="M159.757,172.7,149.09,184.125a1.041,1.041,0,1,0,1.523,1.42l10.668-11.429a1.041,1.041,0,0,0-1.524-1.415Z" transform="translate(-130.65 -152.934)" fill="#fff"/>
      <path id="Path_23" data-name="Path 23" d="M371.755,172.41a1.041,1.041,0,0,0-1.523,1.421L380.9,185.254a1.041,1.041,0,0,0,1.523-1.42Z" transform="translate(-324.805 -152.643)" fill="#fff"/>
    </g>
  </g>
</svg>
