<svg xmlns="http://www.w3.org/2000/svg" width="29.658" height="45.565" viewBox="0 0 29.658 45.565">
  <g id="document" transform="translate(-14.169 -5.678)">
    <path id="Path_13" data-name="Path 13" d="M42.916,14.336h-5.5V11.976a.911.911,0,0,0-.911-.911h-3.66V9.521a3.842,3.842,0,1,0-7.685,0v1.544H21.495a.911.911,0,0,0-.911.911v2.359h-5.5a.911.911,0,0,0-.911.911V50.332a.911.911,0,0,0,.911.911H42.916a.911.911,0,0,0,.911-.911V15.247a.911.911,0,0,0-.911-.911Zm-20.51-1.448h3.661a.911.911,0,0,0,.911-.911V9.521a2.02,2.02,0,1,1,4.039,0v2.455a.911.911,0,0,0,.911.911h3.66v1.448H22.406ZM42,49.421H15.992V16.158H42Z" transform="translate(0 0)" fill="#0b5ada"/>
    <path id="Path_14" data-name="Path 14" d="M34.233,32.02a6.86,6.86,0,1,0-2.7,5.427l5.149,5.15a.911.911,0,1,0,1.289-1.289l-5.149-5.15a6.792,6.792,0,0,0,1.408-4.138ZM27.4,37.032A5.012,5.012,0,1,1,32.41,32.02,5.018,5.018,0,0,1,27.4,37.032Z" transform="translate(-0.405 -1.234)" fill="#0b5ada"/>
  </g>
</svg>
