<svg id="_x35_54_x2C__Find_x2C__Glass_x2C__Magnifier_x2C__Search_x2C__Web_x2C_" xmlns="http://www.w3.org/2000/svg" width="59.322" height="59.339" viewBox="0 0 59.322 59.339">
  <g id="Group_43" data-name="Group 43">
    <path id="Path_24" data-name="Path 24" d="M61.58,46.075A15.433,15.433,0,1,0,77.012,61.508,15.45,15.45,0,0,0,61.58,46.075Zm0,28.491A13.058,13.058,0,1,1,74.638,61.508,13.073,13.073,0,0,1,61.58,74.566Z" transform="translate(-41.399 -41.326)" fill="#fff"/>
    <path id="Path_25" data-name="Path 25" d="M65.123,57.511,48.5,40.887a1.187,1.187,0,0,0-1.679,0l-.281.281L43,37.624a20.2,20.2,0,1,0-5.3,5.3l3.544,3.544-.3.3a1.188,1.188,0,0,0,0,1.679L57.568,65.065a1.187,1.187,0,0,0,1.679,0l5.876-5.876a1.188,1.188,0,0,0,0-1.679ZM8.523,26.255A17.807,17.807,0,1,1,26.33,44.062,17.827,17.827,0,0,1,8.523,26.255ZM41.536,39.523l3.3,3.3-1.939,1.939-3.3-3.3a20.27,20.27,0,0,0,1.939-1.938ZM58.407,62.547,43.463,47.6l4.2-4.2L62.6,58.35Z" transform="translate(-6.149 -6.074)" fill="#fff"/>
    <path id="Path_26" data-name="Path 26" d="M96.831,175.572a8.319,8.319,0,0,1-8.31-8.31,1.187,1.187,0,1,0-2.374,0,10.7,10.7,0,0,0,10.684,10.684,1.187,1.187,0,1,0,0-2.374Z" transform="translate(-76.65 -147.081)" fill="#fff"/>
  </g>
</svg>
