<svg xmlns="http://www.w3.org/2000/svg" width="46.547" height="45.565" viewBox="0 0 46.547 45.565">
  <g id="maintenance" transform="translate(0 -5.4)">
    <g id="Group_2" data-name="Group 2" transform="translate(0 5.4)">
      <g id="Group_1" data-name="Group 1" transform="translate(0)">
        <path id="Path_7" data-name="Path 7" d="M183.9,73.4a.919.919,0,0,0,1.224-.611,9.817,9.817,0,0,0,0-4.948.919.919,0,0,0-1.225-.612,1.447,1.447,0,0,1-1.434-2.484.919.919,0,0,0,.085-1.366,9.763,9.763,0,0,0-4.289-2.481.919.919,0,0,0-1.141.758,1.447,1.447,0,0,1-2.869,0,.919.919,0,0,0-1.141-.758,9.762,9.762,0,0,0-4.289,2.481.919.919,0,0,0,.085,1.366,1.447,1.447,0,0,1-1.434,2.484.919.919,0,0,0-1.225.612,9.815,9.815,0,0,0,0,4.948.919.919,0,0,0,1.224.61,1.448,1.448,0,0,1,1.436,2.482.909.909,0,0,0-.081,1.364,9.76,9.76,0,0,0,4.282,2.473.919.919,0,0,0,1.14-.753,1.447,1.447,0,0,1,2.866,0,.919.919,0,0,0,1.14.753,9.759,9.759,0,0,0,4.283-2.473.919.919,0,0,0-.081-1.364A1.448,1.448,0,0,1,183.9,73.4Zm-3.374-.292a3.28,3.28,0,0,0,.094,3.417,7.946,7.946,0,0,1-2.019,1.167,3.264,3.264,0,0,0-5.826,0,7.945,7.945,0,0,1-2.018-1.167,3.264,3.264,0,0,0-2.918-5.045,8.029,8.029,0,0,1,0-2.332,3.264,3.264,0,0,0,2.914-5.053,7.951,7.951,0,0,1,2.018-1.169,3.265,3.265,0,0,0,5.838,0,7.947,7.947,0,0,1,2.018,1.169,3.265,3.265,0,0,0,2.914,5.053,8.03,8.03,0,0,1,0,2.332A3.28,3.28,0,0,0,180.527,73.1Z" transform="translate(-150.851 -55.821)" fill="#0b5ada"/>
        <path id="Path_8" data-name="Path 8" d="M233.817,121.371a3.94,3.94,0,1,0,3.94,3.94A3.945,3.945,0,0,0,233.817,121.371Zm0,6.063a2.122,2.122,0,1,1,2.122-2.122A2.125,2.125,0,0,1,233.817,127.434Z" transform="translate(-208.979 -110.828)" fill="#0b5ada"/>
        <path id="Path_9" data-name="Path 9" d="M46.463,276.654A4,4,0,0,0,41.7,273.6l-9.1,2.083a9.151,9.151,0,0,1-4.921-.228,4.186,4.186,0,0,0,1.449-1.8,4.114,4.114,0,0,0-2.159-5.42L17.7,264.395a.911.911,0,0,0-.348-.069H8.7v-1.235a.918.918,0,0,0-.909-.909H.909a.909.909,0,0,0-.909.909v15.98a.909.909,0,0,0,.909.909H7.791a.909.909,0,0,0,.909-.909v-.864h3.592a.909.909,0,0,0,0-1.818H8.7V266.144h8.47l9.1,3.767a2.28,2.28,0,0,1,1.18,3.031,2.337,2.337,0,0,1-2.884,1.327l-6.2-2.383a.909.909,0,1,0-.653,1.7s3.449,1.326,6.079,2.34q.079.03.157.057L26.6,277a10.966,10.966,0,0,0,6.4.455l9.1-2.083a2.164,2.164,0,0,1,2.578,1.654,2.141,2.141,0,0,1-1.571,2.515L32.253,282.3a9.134,9.134,0,0,1-5.617-.351l-6.427-2.521a.909.909,0,1,0-.664,1.693l6.427,2.521a10.942,10.942,0,0,0,6.728.421l10.858-2.76a3.955,3.955,0,0,0,2.9-4.647ZM1.818,278.162V264H6.882v13.3h0v.864Z" transform="translate(0 -238.838)" fill="#0b5ada"/>
        <path id="Path_10" data-name="Path 10" d="M91.862,23.781l2.563,1.51a.918.918,0,0,0,1.211-.269L97.33,22.55a.909.909,0,1,0-1.5-1.028l-.542.791A12.757,12.757,0,1,1,116.8,29.059a.909.909,0,0,0-.009,1.286.919.919,0,0,0,1.286.009A14.58,14.58,0,1,0,93.5,22.635l-.714-.421a.909.909,0,1,0-.923,1.566Z" transform="translate(-83.104 -5.4)" fill="#0b5ada"/>
        <path id="Path_11" data-name="Path 11" d="M333.789,286.2a.909.909,0,1,0-.251,1.261A.917.917,0,0,0,333.789,286.2Z" transform="translate(-301.934 -260.31)" fill="#0b5ada"/>
      </g>
    </g>
    <path id="Path_12" data-name="Path 12" d="M167.645,434.871a.909.909,0,1,0-.251,1.261A.918.918,0,0,0,167.645,434.871Z" transform="translate(-150.895 -390.063)" fill="#0b5ada"/>
  </g>
</svg>
