<svg xmlns="http://www.w3.org/2000/svg" width="65.505" height="59.249" viewBox="0 0 65.505 59.249">
  <g id="package" transform="translate(0 -24.45)">
    <g id="Group_71" data-name="Group 71" transform="translate(0 24.45)">
      <path id="Path_51" data-name="Path 51" d="M65.5,32.556c0-.007,0-.014,0-.022,0-.029,0-.057-.006-.085,0-.01,0-.02,0-.031,0-.026-.009-.051-.014-.076l-.008-.029c-.007-.027-.016-.053-.026-.08,0,0,0-.01,0-.015l-2.6-6.663a1.728,1.728,0,0,0-1.619-1.105H56.479a.935.935,0,1,0,0,1.871h4.649l2.071,5.3H43.615l-1.227-5.3h7.233a.935.935,0,0,0,0-1.871H11.78a1.728,1.728,0,0,0-1.619,1.106l-2.6,6.663s0,.01,0,.015c-.01.026-.018.052-.026.08l-.008.029c-.006.025-.011.05-.014.076,0,.01,0,.02,0,.031,0,.028,0,.056-.006.085,0,.007,0,.014,0,.022s0,0,0,0V46.3a.935.935,0,0,0,1.871,0V33.494H29.192V47.712a1.415,1.415,0,0,0,2.354,1.059L36.5,44.383l4.954,4.389a1.415,1.415,0,0,0,2.354-1.059V33.494H63.634V75.449a1.219,1.219,0,0,1-1.217,1.217H45.266c0-.011,0-.021,0-.032,0-.084,0-.168-.011-.251a3.366,3.366,0,0,0,3.962-4.559c-.033-.078-.069-.154-.107-.228l-.021-.041q-.056-.107-.119-.208l-.025-.039c-.045-.069-.091-.138-.14-.2l0,0c-.049-.065-.1-.127-.154-.188l-.029-.034q-.079-.088-.165-.171l-.034-.032c-.059-.056-.12-.11-.184-.162l-.007,0c-.062-.05-.127-.1-.193-.144L48,70.341q-.1-.067-.2-.127l-.017-.01a3.368,3.368,0,0,0-.632-5.519q-.147-.078-.3-.141L32.286,58.608l6.776-2.1a3.073,3.073,0,0,0,2.024-3.833A3,3,0,0,0,40.06,51.2a3.149,3.149,0,0,0-2.584-.606l-.013,0c-.052.012-5.247,1.18-10.672,2.238l-.706.137-.546.1-.154.029-.92.173-.355.066c-6.814,1.255-8.728,1.278-9.259,1.206h-.006l-.023,0-.015,0-.011,0a.725.725,0,0,1-.079-.018l-.153-.062.191-.468a1.85,1.85,0,0,0-.008-1.425,1.884,1.884,0,0,0-.175-.324,1.849,1.849,0,0,0-.838-.679L8.708,49.511a1.862,1.862,0,0,0-2.427,1.021L.137,65.6a1.864,1.864,0,0,0,1.021,2.427l5.024,2.049A1.862,1.862,0,0,0,8.61,69.053l.046-.113,1.158.472h0a10.275,10.275,0,0,1,3.012,1.9q.241.218.468.451t.439.481q.106.124.208.251a12.154,12.154,0,0,0,4.881,3.642l1.3.531H10.582a1.219,1.219,0,0,1-1.217-1.217V73.082a.935.935,0,0,0-1.871,0v2.367a3.092,3.092,0,0,0,3.088,3.088H24.716l12.05,4.913a3.365,3.365,0,0,0,4.616-3.476,3.474,3.474,0,0,0,1.866-.247,3.335,3.335,0,0,0,1.447-1.19H62.417A3.092,3.092,0,0,0,65.5,75.449V32.559A.035.035,0,0,1,65.5,32.556ZM32.531,26.321h7.938l1.227,5.3H31.3Zm-3.147,5.3H9.8l2.071-5.3H30.61ZM41.937,46.7h0l-4.5-3.985a1.417,1.417,0,0,0-1.877,0l-4.5,3.985V33.494H41.937ZM6.881,68.339,1.873,66.3,8.01,51.247l5.008,2.042ZM44.25,73.984l-1.074-.438h0l-11.18-4.559a.935.935,0,0,0-.706,1.732l11.18,4.559a1.489,1.489,0,0,1,.135.063l.036.021c.031.017.062.035.091.054l.04.03c.026.018.052.037.076.057s.028.025.042.038.044.038.064.058.027.03.04.044.038.04.056.061.025.034.038.05.033.042.047.063.023.037.035.056.027.043.04.065.02.041.03.061.022.043.032.066.017.044.025.066.018.044.025.066.013.046.019.069.013.045.019.068.009.047.013.07.009.046.012.07,0,.047.006.071,0,.047.006.071,0,.047,0,.071,0,.049,0,.073,0,.046-.007.069,0,.05-.009.075-.009.045-.014.068-.01.05-.017.075-.014.044-.021.066-.015.05-.025.075l-.023.051,0,.012a1.454,1.454,0,0,1-.768.758,1.583,1.583,0,0,1-1.218.015l-1.981-.808-.028-.01-.028-.013-9.093-3.708a.935.935,0,0,0-.706,1.732l9.093,3.708.029.01.026.012a1.495,1.495,0,1,1-1.129,2.768L25.254,76.736h0L19.531,74.4a10.277,10.277,0,0,1-4.128-3.08,12.15,12.15,0,0,0-4.881-3.642h0l-1.16-.473,2.31-5.666,2.183-5.354.161.066a2.43,2.43,0,0,0,.95.172,24.251,24.251,0,0,0,4.084-.347c1.466-.207,3.263-.506,5.362-.893l.155-.029.3-.055.234-.044.269-.051.29-.055.235-.045.361-.069.187-.036.566-.109c5.407-1.052,10.626-2.222,10.86-2.275.023,0,.047-.008.07-.011a1.228,1.228,0,0,1,1.362.819,1.2,1.2,0,0,1-.789,1.5l-9.273,2.87a.935.935,0,0,0-.077,1.76l16.978,6.923a1.5,1.5,0,0,1-.556,2.88h-.008c-.046,0-.091,0-.136-.006l-.04-.006c-.035,0-.069-.008-.1-.015s-.043-.011-.065-.016-.052-.011-.077-.019-.052-.018-.079-.028-.042-.014-.062-.022L33.829,64.485a.935.935,0,0,0-.706,1.732l13.556,5.527a1.5,1.5,0,0,1,.261.138,1.5,1.5,0,0,1,.608,1.671q-.021.071-.049.14a1.5,1.5,0,0,1-.065.138,1.53,1.53,0,0,1-.347.43l-.025.022a1.5,1.5,0,0,1-1.513.229Z" transform="translate(0 -24.45)" fill="#fff"/>
    </g>
  </g>
</svg>
