<svg xmlns="http://www.w3.org/2000/svg" width="44.24" height="44.24" viewBox="0 0 44.24 44.24">
  <path id="phone" d="M45.468,48.24C21.878,48.273,3.975,30.156,4,6.772A2.771,2.771,0,0,1,6.765,4h7.3A2.768,2.768,0,0,1,16.8,6.362a34.332,34.332,0,0,0,2.809,9.391l.284.613a1.954,1.954,0,0,1-.638,2.412,5.349,5.349,0,0,0-1.363,7.4,32.677,32.677,0,0,0,8.175,8.174,5.348,5.348,0,0,0,7.4-1.363,1.956,1.956,0,0,1,2.414-.638l.611.283a34.335,34.335,0,0,0,9.392,2.809,2.768,2.768,0,0,1,2.362,2.735v7.3a2.768,2.768,0,0,1-2.768,2.765Z" transform="translate(-4 -4)" fill="#0b5ada"/>
</svg>
