<svg id="save-money" xmlns="http://www.w3.org/2000/svg" width="52.2" height="59.249" viewBox="0 0 52.2 59.249">
  <path id="Path_34" data-name="Path 34" d="M190.269,161.478a.925.925,0,0,0-.333-.011,2.209,2.209,0,0,1-1.954-2.191.972.972,0,1,0-1.944,0,4.158,4.158,0,0,0,3.057,4v.972a.972.972,0,0,0,1.944,0v-.913a4.15,4.15,0,0,0-.85-8.212,2.207,2.207,0,1,1,2.207-2.207.972.972,0,0,0,1.944,0,4.158,4.158,0,0,0-3.3-4.063v-.885a.972.972,0,0,0-1.944,0v.944a4.15,4.15,0,0,0,1.093,8.153,2.205,2.205,0,0,1,.081,4.409Zm0,0" transform="translate(-163.481 -129.142)" fill="#fff"/>
  <path id="Path_35" data-name="Path 35" d="M104.195,120.585a14.093,14.093,0,1,0,14.093-14.093A14.093,14.093,0,0,0,104.195,120.585Zm14.093-12.149a12.149,12.149,0,1,1-12.149,12.149A12.149,12.149,0,0,1,118.288,108.436Zm0,0" transform="translate(-91.581 -93.555)" fill="#fff"/>
  <path id="Path_36" data-name="Path 36" d="M45.951,330.228l-7.613,3.6a6.2,6.2,0,0,0-5.286-3.262l-7.028-.193a7.422,7.422,0,0,1-3.194-.825l-.715-.371a12.614,12.614,0,0,0-11.684.012l.045-1.62a.972.972,0,0,0-.945-1l-7.707-.212a.971.971,0,0,0-1,.945L.36,344.213a.972.972,0,0,0,.945,1l7.707.212h.027a.972.972,0,0,0,.972-.945l.022-.809,2-1.072a3.434,3.434,0,0,1,2.563-.28l11.956,3.355.063.016a12.8,12.8,0,0,0,2.628.271,12.967,12.967,0,0,0,5.417-1.182.9.9,0,0,0,.121-.066L52.115,333.5a.972.972,0,0,0,.318-1.295,4.909,4.909,0,0,0-6.483-1.975ZM2.33,343.3l.412-14.969,5.763.159-.412,14.969Zm31.455-.254a11.019,11.019,0,0,1-6.738.752l-11.923-3.347a5.374,5.374,0,0,0-4.006.438l-1.023.548.274-9.953A10.683,10.683,0,0,1,21.22,330.9l.715.371a9.387,9.387,0,0,0,4.035,1.042l7.028.193a4.263,4.263,0,0,1,4.051,3.4l-10.469-.289a.972.972,0,1,0-.054,1.943l11.553.318h.027a.972.972,0,0,0,.971-.945,6.168,6.168,0,0,0-.094-1.261l7.809-3.69.023-.011a2.969,2.969,0,0,1,3.358.47Zm0,0" transform="translate(-0.36 -286.709)" fill="#fff"/>
  <path id="Path_37" data-name="Path 37" d="M214.147,10.2V.972a.972.972,0,0,0-1.944,0V10.2a.972.972,0,0,0,1.944,0Zm0,0" transform="translate(-186.468)" fill="#fff"/>
  <path id="Path_38" data-name="Path 38" d="M274.147,45.345V40.972a.972.972,0,0,0-1.944,0v4.373a.972.972,0,0,0,1.944,0Zm0,0" transform="translate(-239.179 -35.141)" fill="#fff"/>
  <path id="Path_39" data-name="Path 39" d="M154.147,45.345V40.972a.972.972,0,0,0-1.944,0v4.373a.972.972,0,0,0,1.944,0Zm0,0" transform="translate(-133.757 -35.141)" fill="#fff"/>
</svg>
