<svg xmlns="http://www.w3.org/2000/svg" width="45.943" height="45.565" viewBox="0 0 45.943 45.565">
  <g id="tools" transform="translate(-0.54 -0.741)">
    <path id="Path_5" data-name="Path 5" d="M44.655,35.16,34.383,24.873a.917.917,0,0,0-1.263,0L31.084,26.91l-2.4-2.393,5.79-5.821c2.419-.127,5.642-.117,5.785-.137.6-.092,1.752-1.018,5.647-6.258a.9.9,0,0,0,.173-.509V9.433a.9.9,0,0,0-.448-.774.881.881,0,0,0-.9,0L40.616,11.1A2.825,2.825,0,0,1,37.4,9.7c-1.426-2.037-.789-3.015.112-3.784A45.469,45.469,0,0,1,41.7,3.256a.906.906,0,0,0,.448-.738.891.891,0,0,0-.387-.769c-.127-.087-3.229-2.159-8.555-.1-4.115,1.589-4.69,3.682-4.741,3.916l-.876,6.187-5.826,5.831-5.2-5.22a4.894,4.894,0,0,0,.346-1.782,4.8,4.8,0,0,0-1.416-3.412.759.759,0,0,0-.143-.117L6.533,1.321a.886.886,0,0,0-1.115.112L1.757,5.095A.886.886,0,0,0,1.645,6.21l5.749,8.8a1.018,1.018,0,0,0,.117.143,4.83,4.83,0,0,0,5.194,1.069l5.2,5.22-6.376,6.376-6.111.866H5.357c-.234.056-2.322.626-3.916,4.746-2.037,5.327,0,8.423.1,8.555a.9.9,0,0,0,.759.392.881.881,0,0,0,.733-.443,45.861,45.861,0,0,1,2.658-4.186c.769-.9,1.762-1.528,3.789-.117,1.884,1.329,1.528,2.882,1.405,3.213l-2.444,4.12a.886.886,0,0,0,.764,1.344h2.358a.861.861,0,0,0,.509-.178c5.347-3.952,6.2-5.092,6.269-5.668,0-.122,0-3.346.127-5.759l6.36-6.33,2.424,2.388L25.217,32.8a.9.9,0,0,0,0,1.263L35.5,44.341a6.162,6.162,0,0,0,8.708,0l.463-.463a6.146,6.146,0,0,0,0-8.708ZM29.062,12.809a.912.912,0,0,0,.25-.509l.9-6.335c.056-.143.652-1.472,3.636-2.628a9.589,9.589,0,0,1,5.362-.672,27.585,27.585,0,0,0-2.857,1.9c-2.449,2.1-1.574,4.507-.412,6.162a4.649,4.649,0,0,0,5.388,2.037c.041,0,2.969-1.747,2.969-1.747v.509a47.432,47.432,0,0,1-4.364,5.281c-1.171-.061-4.43.1-5.892.178a.886.886,0,0,0-.586.26l-6.029,6L25.9,21.716l5.815-5.841a.891.891,0,1,0-1.258-1.253l-5.831,5.826-1.6-1.6ZM10.9,14.78a3,3,0,0,1-2.083-.825L3.529,5.843,6.167,3.205l8.112,5.306a3.055,3.055,0,0,1-.061,4.237l-1.166,1.166A3.02,3.02,0,0,1,10.9,14.8Zm6.08,18.908a.866.866,0,0,0-.26.581c-.081,1.467-.239,4.721-.173,5.892a48.519,48.519,0,0,1-5.286,4.369h-.509l1.762-2.969a4.6,4.6,0,0,0-2.037-5.388c-1.655-1.161-4.074-2.037-6.167.412a27.854,27.854,0,0,0-1.9,2.857,9.553,9.553,0,0,1,.677-5.362c1.161-3.01,2.5-3.565,2.628-3.641l6.36-.9a.881.881,0,0,0,.509-.25L19.168,22.7l1.6,1.6L14.34,30.734A.889.889,0,1,0,15.6,31.992l6.432-6.432,1.528,1.528Zm-2.76-18.455.092-.081,1.161-1.161.081-.092L29.816,28.158l-1.334,1.334ZM43.4,42.63l-.463.468a4.39,4.39,0,0,1-6.192,0l-9.65-9.675,2.037-2.037,2.6-2.592,2.037-2.037,9.675,9.675a4.369,4.369,0,0,1-.041,6.2Z" transform="translate(0 0)" fill="#0b5ada"/>
    <path id="Path_6" data-name="Path 6" d="M63.217,61.126a.881.881,0,0,0-1.258,0,.891.891,0,0,0,0,1.258L69.6,70.022a.893.893,0,1,0,1.263-1.263Z" transform="translate(-30.015 -29.505)" fill="#0b5ada"/>
  </g>
</svg>
