<svg xmlns="http://www.w3.org/2000/svg" width="59.741" height="59.249" viewBox="0 0 59.741 59.249">
  <g id="tools" transform="translate(-0.54 -0.741)">
    <path id="Path_49" data-name="Path 49" d="M57.9,45.5,44.547,32.12a1.192,1.192,0,0,0-1.642,0l-2.649,2.649-3.119-3.112,7.529-7.569c3.145-.166,7.337-.152,7.522-.179.781-.119,2.278-1.324,7.343-8.138a1.172,1.172,0,0,0,.225-.662V12.044a1.165,1.165,0,0,0-.583-1.006,1.146,1.146,0,0,0-1.165,0l-5.357,3.178c-.457.146-2.463.616-4.178-1.828-1.854-2.649-1.026-3.92.146-4.92a59.123,59.123,0,0,1,5.443-3.456,1.179,1.179,0,0,0,.583-.96,1.159,1.159,0,0,0-.5-1c-.166-.113-4.2-2.808-11.124-.126-5.35,2.066-6.1,4.787-6.165,5.092l-1.139,8.045-7.575,7.582-6.767-6.787a6.363,6.363,0,0,0,.45-2.318A6.238,6.238,0,0,0,19.981,9.1a.987.987,0,0,0-.185-.152L8.333,1.5a1.152,1.152,0,0,0-1.45.146L2.122,6.4a1.152,1.152,0,0,0-.146,1.45L9.453,19.294a1.324,1.324,0,0,0,.152.185,6.28,6.28,0,0,0,6.754,1.391l6.767,6.787-8.29,8.29L6.89,37.073H6.8c-.3.073-3.019.814-5.092,6.171-2.649,6.926,0,10.952.132,11.124a1.172,1.172,0,0,0,.987.51,1.146,1.146,0,0,0,.954-.576A59.633,59.633,0,0,1,7.241,48.86c1-1.172,2.291-1.986,4.926-.152,2.45,1.728,1.986,3.748,1.828,4.178l-3.178,5.357a1.152,1.152,0,0,0,.993,1.748h3.066a1.119,1.119,0,0,0,.662-.232c6.953-5.138,8.059-6.622,8.151-7.37,0-.159,0-4.35.166-7.489l8.27-8.231,3.152,3.106-2.649,2.649a1.165,1.165,0,0,0,0,1.642L46,57.435a8.012,8.012,0,0,0,11.323,0l.6-.6a7.992,7.992,0,0,0,0-11.323ZM37.628,16.434a1.185,1.185,0,0,0,.324-.662l1.172-8.237c.073-.185.848-1.914,4.728-3.417a12.469,12.469,0,0,1,6.973-.874,35.869,35.869,0,0,0-3.715,2.47c-3.185,2.728-2.046,5.86-.536,8.012,2.364,3.357,5.622,3.192,7.006,2.649.053,0,3.86-2.271,3.86-2.271v.662a61.675,61.675,0,0,1-5.675,6.867c-1.523-.079-5.761.126-7.661.232a1.152,1.152,0,0,0-.761.338L35.5,30l-1.986-1.986,7.562-7.595a1.159,1.159,0,1,0-1.636-1.629L31.86,26.366,29.781,24.28ZM14.015,19a3.907,3.907,0,0,1-2.708-1.073L4.427,7.375l3.43-3.43,10.548,6.9a3.973,3.973,0,0,1-.079,5.509l-1.516,1.516a3.927,3.927,0,0,1-2.794,1.152Zm7.906,24.586a1.126,1.126,0,0,0-.338.755c-.106,1.907-.311,6.138-.225,7.661a63.09,63.09,0,0,1-6.873,5.681h-.662l2.291-3.86c.563-1.391.735-4.635-2.649-7.006-2.152-1.51-5.3-2.649-8.019.536a36.219,36.219,0,0,0-2.47,3.715,12.422,12.422,0,0,1,.881-6.973c1.51-3.913,3.245-4.635,3.417-4.734l8.27-1.172a1.146,1.146,0,0,0,.662-.324l8.555-8.568,2.086,2.079-8.363,8.37a1.157,1.157,0,1,0,1.636,1.636l8.363-8.363L30.47,35Zm-3.589-24,.119-.106,1.51-1.51.106-.119L38.608,36.391l-1.735,1.735ZM56.267,55.21l-.6.609a5.708,5.708,0,0,1-8.052,0L35.065,43.238l2.649-2.649,3.377-3.37,2.649-2.649L56.32,47.151a5.681,5.681,0,0,1-.053,8.059Z" transform="translate(0 0)" fill="#fff"/>
    <path id="Path_50" data-name="Path 50" d="M63.673,61.2a1.146,1.146,0,0,0-1.636,0,1.159,1.159,0,0,0,0,1.636l9.932,9.932a1.161,1.161,0,0,0,1.642-1.642Z" transform="translate(-20.662 -20.311)" fill="#fff"/>
  </g>
</svg>
