<svg xmlns="http://www.w3.org/2000/svg" width="63.58" height="45.565" viewBox="0 0 63.58 45.565">
  <g id="truck" transform="translate(0 -72.533)">
    <g id="Group_4" data-name="Group 4" transform="translate(8.477 105.383)">
      <g id="Group_3" data-name="Group 3">
        <path id="Path_15" data-name="Path 15" d="M74.625,337.067a6.358,6.358,0,1,0,6.358,6.358A6.364,6.364,0,0,0,74.625,337.067Zm0,10.6a4.239,4.239,0,1,1,4.239-4.239A4.243,4.243,0,0,1,74.625,347.664Z" transform="translate(-68.267 -337.067)" fill="#0b5ada"/>
      </g>
    </g>
    <g id="Group_6" data-name="Group 6" transform="translate(44.506 105.383)">
      <g id="Group_5" data-name="Group 5">
        <path id="Path_16" data-name="Path 16" d="M364.758,337.067a6.358,6.358,0,1,0,6.358,6.358A6.364,6.364,0,0,0,364.758,337.067Zm0,10.6A4.239,4.239,0,1,1,369,343.425,4.243,4.243,0,0,1,364.758,347.664Z" transform="translate(-358.4 -337.067)" fill="#0b5ada"/>
      </g>
    </g>
    <g id="Group_8" data-name="Group 8" transform="translate(40.267 84.189)">
      <g id="Group_7" data-name="Group 7" transform="translate(0 0)">
        <path id="Path_17" data-name="Path 17" d="M347.411,181.722l-9.537-14.835a1.06,1.06,0,0,0-.891-.486H325.327a1.059,1.059,0,0,0-1.06,1.06v26.491a1.059,1.059,0,0,0,1.06,1.06h4.239v-2.119h-3.179V168.519H336.4l9.056,14.087v10.285h-5.3v2.119h6.358a1.059,1.059,0,0,0,1.06-1.06V182.295A1.057,1.057,0,0,0,347.411,181.722Z" transform="translate(-324.267 -166.4)" fill="#0b5ada"/>
      </g>
    </g>
    <g id="Group_10" data-name="Group 10" transform="translate(44.506 88.428)">
      <g id="Group_9" data-name="Group 9" transform="translate(0 0)">
        <path id="Path_18" data-name="Path 18" d="M360.52,210.07v-7.418H369v-2.119h-9.537a1.059,1.059,0,0,0-1.06,1.06v9.537a1.059,1.059,0,0,0,1.06,1.06h15.895V210.07H360.52Z" transform="translate(-358.401 -200.533)" fill="#0b5ada"/>
      </g>
    </g>
    <g id="Group_12" data-name="Group 12" transform="translate(0 76.772)">
      <g id="Group_11" data-name="Group 11" transform="translate(0 0)">
        <path id="Path_19" data-name="Path 19" d="M41.327,106.667H1.06A1.06,1.06,0,0,0,0,107.727v33.909a1.059,1.059,0,0,0,1.06,1.06H9.537v-2.119H2.119v-31.79H40.267v31.79H20.134V142.7H41.327a1.059,1.059,0,0,0,1.06-1.06V107.727A1.059,1.059,0,0,0,41.327,106.667Z" transform="translate(0 -106.667)" fill="#0b5ada"/>
      </g>
    </g>
    <g id="Group_14" data-name="Group 14" transform="translate(1.06 106.442)">
      <g id="Group_13" data-name="Group 13">
        <rect id="Rectangle_8" data-name="Rectangle 8" width="6.358" height="2.119" fill="#0b5ada"/>
      </g>
    </g>
    <g id="Group_16" data-name="Group 16" transform="translate(22.253 106.442)">
      <g id="Group_15" data-name="Group 15">
        <rect id="Rectangle_9" data-name="Rectangle 9" width="18.014" height="2.119" fill="#0b5ada"/>
      </g>
    </g>
    <g id="Group_18" data-name="Group 18" transform="translate(58.281 106.442)">
      <g id="Group_17" data-name="Group 17">
        <rect id="Rectangle_10" data-name="Rectangle 10" width="4.239" height="2.119" fill="#0b5ada"/>
      </g>
    </g>
    <g id="Group_20" data-name="Group 20" transform="translate(4.239 81.01)">
      <g id="Group_19" data-name="Group 19" transform="translate(0 0)">
        <rect id="Rectangle_11" data-name="Rectangle 11" width="37.088" height="2.119" fill="#0b5ada"/>
      </g>
    </g>
    <g id="Group_22" data-name="Group 22" transform="translate(13.776 110.681)">
      <g id="Group_21" data-name="Group 21" transform="translate(0 0)">
        <rect id="Rectangle_12" data-name="Rectangle 12" width="2.119" height="2.119" fill="#0b5ada"/>
      </g>
    </g>
    <g id="Group_24" data-name="Group 24" transform="translate(49.804 110.681)">
      <g id="Group_23" data-name="Group 23" transform="translate(0 0)">
        <rect id="Rectangle_13" data-name="Rectangle 13" width="2.119" height="2.119" fill="#0b5ada"/>
      </g>
    </g>
    <g id="Group_26" data-name="Group 26" transform="translate(4.239 72.533)">
      <g id="Group_25" data-name="Group 25" transform="translate(0 0)">
        <rect id="Rectangle_14" data-name="Rectangle 14" width="14.835" height="2.119" fill="#0b5ada"/>
      </g>
    </g>
    <g id="Group_28" data-name="Group 28" transform="translate(0 72.533)">
      <g id="Group_27" data-name="Group 27" transform="translate(0 0)">
        <rect id="Rectangle_15" data-name="Rectangle 15" width="2.119" height="2.119" fill="#0b5ada"/>
      </g>
    </g>
  </g>
</svg>
